<svg xmlns="http://www.w3.org/2000/svg" viewBox="0 0 14.57 12"><path d="M14.5 1.44a6.19 6.19 0 01-1.51.42c.24 0 .6-.47.73-.64a2.82 2.82 0 00.49-.9V.25a.07.07 0 00-.08 0 7.44 7.44 0 01-1.75.67.11.11 0 01-.12 0l-.1-.2a3 3 0 00-.85-.51A2.9 2.9 0 0010 0a3.1 3.1 0 00-1.22.35 3.28 3.28 0 00-1 .82 3 3 0 00-.59 1.19 3.28 3.28 0 000 1.25c0 .07 0 .08-.06.07a9.38 9.38 0 01-6-3.06C1 .54 1 .54.93.63a3 3 0 00.52 3.6 2.94 2.94 0 00.37.32 3 3 0 01-1.16-.32c-.07-.05-.1 0-.12.06s0 .22 0 .34a3.09 3.09 0 001.9 2.46 2.52 2.52 0 00.39.12 3.61 3.61 0 01-1.14 0c-.08 0-.1 0-.08.1A3.2 3.2 0 004 9.35h.32a3.77 3.77 0 01-1.63.86 5.8 5.8 0 01-2.48.32h-.2c-.03 0 0 .06 0 .1l.55.38a8.21 8.21 0 001.66.66 8.83 8.83 0 008.56-2 9 9 0 002.37-6.56c0-.1.1-.15.18-.2a6.1 6.1 0 001.16-1.23.38.38 0 00.07-.23s0-.04-.06-.01z" fill="#fff"/></svg>